<svg xmlns="http://www.w3.org/2000/svg" viewBox="0 0 640 400" width="640" height="400"><rect width="640" height="400" fill="#0b1519"/><g stroke="#16262b" stroke-width="1" fill="none"><path d="M40 0V400" /><path d="M120 0V400" /><path d="M200 0V400" /><path d="M280 0V400" /><path d="M360 0V400" /><path d="M440 0V400" /><path d="M520 0V400" /><path d="M600 0V400" /><path d="M0 40H640" /><path d="M0 120H640" /><path d="M0 200H640" /><path d="M0 280H640" /><path d="M0 360H640" /></g><rect x="12.9" y="30.5" width="264.8" height="188.1" fill="#3b518b" fill-opacity="0.12" stroke="#3b518b" stroke-width="2"/><rect x="33.2" y="32.5" width="101.3" height="89.8" fill="none" stroke="#21908d" stroke-opacity="0.8"/><rect x="139.8" y="65.2" width="135.9" height="57.6" fill="none" stroke="#21908d" stroke-opacity="0.8"/><rect x="14.9" y="125" width="126.7" height="91.6" fill="none" stroke="#21908d" stroke-opacity="0.8"/><rect x="141.2" y="122" width="107.3" height="49.5" fill="none" stroke="#21908d" stroke-opacity="0.8"/><rect x="392.7" y="12.5" width="196.5" height="191.8" fill="#3b518b" fill-opacity="0.12" stroke="#3b518b" stroke-width="2"/><rect x="394.7" y="65.8" width="70.7" height="42.6" fill="none" stroke="#21908d" stroke-opacity="0.8"/><rect x="477.5" y="14.5" width="109.7" height="91.3" fill="none" stroke="#21908d" stroke-opacity="0.8"/><rect x="401.4" y="117.3" width="68.3" height="85" fill="none" stroke="#21908d" stroke-opacity="0.8"/><rect x="484.3" y="126.1" width="96.4" height="24.7" fill="none" stroke="#21908d" stroke-opacity="0.8"/><rect x="112.7" y="234.1" width="168.8" height="113.9" fill="#3b518b" fill-opacity="0.12" stroke="#3b518b" stroke-width="2"/><rect x="114.7" y="236.1" width="81.3" height="66.2" fill="none" stroke="#21908d" stroke-opacity="0.8"/><rect x="197.8" y="260.7" width="72.3" height="36.9" fill="none" stroke="#21908d" stroke-opacity="0.8"/><rect x="116.3" y="320.8" width="87.3" height="25.1" fill="none" stroke="#21908d" stroke-opacity="0.8"/><rect x="199.6" y="297.9" width="79.9" height="43.7" fill="none" stroke="#21908d" stroke-opacity="0.8"/><rect x="350.6" y="207.4" width="267.1" height="135.7" fill="#3b518b" fill-opacity="0.12" stroke="#3b518b" stroke-width="2"/><rect x="437.6" y="213.7" width="43.5" height="75.7" fill="none" stroke="#21908d" stroke-opacity="0.8"/><rect x="482.2" y="209.4" width="119.9" height="74" fill="none" stroke="#21908d" stroke-opacity="0.8"/><rect x="352.6" y="304.8" width="119.2" height="36.3" fill="none" stroke="#21908d" stroke-opacity="0.8"/><rect x="478.9" y="288.7" width="136.8" height="33.4" fill="none" stroke="#21908d" stroke-opacity="0.8"/><circle cx="145.2" cy="167.5" r="2.6" fill="#5cc863" fill-opacity="0.7"/><circle cx="88.8" cy="157.7" r="2.6" fill="#5cc863" fill-opacity="0.7"/><circle cx="125.7" cy="110.1" r="2.6" fill="#5cc863" fill-opacity="0.7"/><circle cx="244.5" cy="126" r="2.6" fill="#5cc863" fill-opacity="0.7"/><circle cx="137.6" cy="147.7" r="2.6" fill="#5cc863" fill-opacity="0.7"/><circle cx="202" cy="118.8" r="2.6" fill="#5cc863" fill-opacity="0.7"/><circle cx="172.3" cy="83" r="2.6" fill="#5cc863" fill-opacity="0.7"/><circle cx="119.8" cy="103.4" r="2.6" fill="#5cc863" fill-opacity="0.7"/><circle cx="66.7" cy="62.7" r="2.6" fill="#5cc863" fill-opacity="0.7"/><circle cx="50.5" cy="110.9" r="2.6" fill="#5cc863" fill-opacity="0.7"/><circle cx="130.5" cy="107.8" r="2.6" fill="#5cc863" fill-opacity="0.7"/><circle cx="143.8" cy="69.2" r="2.6" fill="#5cc863" fill-opacity="0.7"/><circle cx="135.6" cy="129" r="2.6" fill="#5cc863" fill-opacity="0.7"/><circle cx="181.3" cy="87.8" r="2.6" fill="#5cc863" fill-opacity="0.7"/><circle cx="118" cy="43.4" r="2.6" fill="#5cc863" fill-opacity="0.7"/><circle cx="112.3" cy="36.5" r="2.6" fill="#5cc863" fill-opacity="0.7"/><circle cx="61.9" cy="161.9" r="2.6" fill="#5cc863" fill-opacity="0.7"/><circle cx="18.9" cy="150.3" r="2.6" fill="#5cc863" fill-opacity="0.7"/><circle cx="158" cy="108.1" r="2.6" fill="#5cc863" fill-opacity="0.7"/><circle cx="165.3" cy="140" r="2.6" fill="#5cc863" fill-opacity="0.7"/><circle cx="197.5" cy="111.2" r="2.6" fill="#5cc863" fill-opacity="0.7"/><circle cx="107.4" cy="97" r="2.6" fill="#5cc863" fill-opacity="0.7"/><circle cx="85.7" cy="118.3" r="2.6" fill="#5cc863" fill-opacity="0.7"/><circle cx="96.8" cy="160.6" r="2.6" fill="#5cc863" fill-opacity="0.7"/><circle cx="37.2" cy="78.4" r="2.6" fill="#5cc863" fill-opacity="0.7"/><circle cx="87.6" cy="40.5" r="2.6" fill="#5cc863" fill-opacity="0.7"/><circle cx="574.6" cy="18.5" r="2.6" fill="#5cc863" fill-opacity="0.7"/><circle cx="454.4" cy="90" r="3.6" fill="#fde725" fill-opacity="1"/><circle cx="561.1" cy="34.6" r="2.6" fill="#5cc863" fill-opacity="0.7"/><circle cx="529" cy="82.2" r="3.6" fill="#fde725" fill-opacity="1"/><circle cx="461.5" cy="84.5" r="3.6" fill="#fde725" fill-opacity="1"/><circle cx="505.2" cy="66.8" r="2.6" fill="#5cc863" fill-opacity="0.7"/><circle cx="465.7" cy="123.4" r="3.6" fill="#fde725" fill-opacity="1"/><circle cx="571.2" cy="18.6" r="2.6" fill="#5cc863" fill-opacity="0.7"/><circle cx="553.9" cy="146" r="2.6" fill="#5cc863" fill-opacity="0.7"/><circle cx="443.4" cy="121.6" r="3.6" fill="#fde725" fill-opacity="1"/><circle cx="444.4" cy="172.6" r="3.6" fill="#fde725" fill-opacity="1"/><circle cx="481.5" cy="101.8" r="3.6" fill="#fde725" fill-opacity="1"/><circle cx="457.5" cy="102.4" r="3.6" fill="#fde725" fill-opacity="1"/><circle cx="460.3" cy="76.6" r="3.6" fill="#fde725" fill-opacity="1"/><circle cx="583.2" cy="37.4" r="2.6" fill="#5cc863" fill-opacity="0.7"/><circle cx="271.7" cy="105.3" r="2.6" fill="#5cc863" fill-opacity="0.7"/><circle cx="461.9" cy="124.2" r="3.6" fill="#fde725" fill-opacity="1"/><circle cx="458.8" cy="104.4" r="3.6" fill="#fde725" fill-opacity="1"/><circle cx="488.3" cy="146.8" r="3.6" fill="#fde725" fill-opacity="1"/><circle cx="445.4" cy="95.8" r="3.6" fill="#fde725" fill-opacity="1"/><circle cx="576.7" cy="130.1" r="2.6" fill="#5cc863" fill-opacity="0.7"/><circle cx="415.8" cy="198.3" r="2.6" fill="#5cc863" fill-opacity="0.7"/><circle cx="512.7" cy="87.6" r="3.6" fill="#fde725" fill-opacity="1"/><circle cx="405.4" cy="121.3" r="3.6" fill="#fde725" fill-opacity="1"/><circle cx="424.2" cy="69.8" r="2.6" fill="#5cc863" fill-opacity="0.7"/><circle cx="398.7" cy="90.8" r="3.6" fill="#fde725" fill-opacity="1"/><circle cx="260.9" cy="283.5" r="2.6" fill="#5cc863" fill-opacity="0.7"/><circle cx="120.3" cy="325.4" r="2.6" fill="#5cc863" fill-opacity="0.7"/><circle cx="203.6" cy="332.1" r="2.6" fill="#5cc863" fill-opacity="0.7"/><circle cx="266.1" cy="293.6" r="2.6" fill="#5cc863" fill-opacity="0.7"/><circle cx="192" cy="298.3" r="2.6" fill="#5cc863" fill-opacity="0.7"/><circle cx="137.6" cy="325.4" r="2.6" fill="#5cc863" fill-opacity="0.7"/><circle cx="275.5" cy="306.6" r="2.6" fill="#5cc863" fill-opacity="0.7"/><circle cx="186.9" cy="290.1" r="2.6" fill="#5cc863" fill-opacity="0.7"/><circle cx="157.1" cy="269.5" r="2.6" fill="#5cc863" fill-opacity="0.7"/><circle cx="178" cy="268" r="2.6" fill="#5cc863" fill-opacity="0.7"/><circle cx="175.9" cy="240.1" r="2.6" fill="#5cc863" fill-opacity="0.7"/><circle cx="219.3" cy="301.9" r="2.6" fill="#5cc863" fill-opacity="0.7"/><circle cx="136.6" cy="212.7" r="2.6" fill="#5cc863" fill-opacity="0.7"/><circle cx="199.6" cy="341.9" r="2.6" fill="#5cc863" fill-opacity="0.7"/><circle cx="159.7" cy="281.6" r="2.6" fill="#5cc863" fill-opacity="0.7"/><circle cx="168.7" cy="324.8" r="2.6" fill="#5cc863" fill-opacity="0.7"/><circle cx="149.6" cy="337.5" r="2.6" fill="#5cc863" fill-opacity="0.7"/><circle cx="183.3" cy="335.1" r="2.6" fill="#5cc863" fill-opacity="0.7"/><circle cx="201.8" cy="291.2" r="2.6" fill="#5cc863" fill-opacity="0.7"/><circle cx="118.7" cy="273.9" r="2.6" fill="#5cc863" fill-opacity="0.7"/><circle cx="185.6" cy="325.1" r="2.6" fill="#5cc863" fill-opacity="0.7"/><circle cx="213.5" cy="273.5" r="2.6" fill="#5cc863" fill-opacity="0.7"/><circle cx="222.5" cy="337.5" r="2.6" fill="#5cc863" fill-opacity="0.7"/><circle cx="191.8" cy="283.3" r="2.6" fill="#5cc863" fill-opacity="0.7"/><circle cx="178.3" cy="330.8" r="2.6" fill="#5cc863" fill-opacity="0.7"/><circle cx="229.6" cy="264.7" r="2.6" fill="#5cc863" fill-opacity="0.7"/><circle cx="500.6" cy="271.8" r="2.6" fill="#5cc863" fill-opacity="0.7"/><circle cx="438.7" cy="337.1" r="2.6" fill="#5cc863" fill-opacity="0.7"/><circle cx="525.2" cy="262.5" r="2.6" fill="#5cc863" fill-opacity="0.7"/><circle cx="484.4" cy="309.1" r="2.6" fill="#5cc863" fill-opacity="0.7"/><circle cx="444.8" cy="285.4" r="2.6" fill="#5cc863" fill-opacity="0.7"/><circle cx="516.7" cy="222" r="2.6" fill="#5cc863" fill-opacity="0.7"/><circle cx="498" cy="318.1" r="2.6" fill="#5cc863" fill-opacity="0.7"/><circle cx="507.7" cy="239" r="2.6" fill="#5cc863" fill-opacity="0.7"/><circle cx="497.5" cy="257.2" r="2.6" fill="#5cc863" fill-opacity="0.7"/><circle cx="511.3" cy="313" r="2.6" fill="#5cc863" fill-opacity="0.7"/><circle cx="491.9" cy="260.9" r="2.6" fill="#5cc863" fill-opacity="0.7"/><circle cx="447.5" cy="322.5" r="2.6" fill="#5cc863" fill-opacity="0.7"/><circle cx="430.6" cy="308.8" r="2.6" fill="#5cc863" fill-opacity="0.7"/><circle cx="508.1" cy="279.4" r="2.6" fill="#5cc863" fill-opacity="0.7"/><circle cx="611.7" cy="292.7" r="2.6" fill="#5cc863" fill-opacity="0.7"/><circle cx="598.1" cy="213.4" r="2.6" fill="#5cc863" fill-opacity="0.7"/><circle cx="356.6" cy="327.3" r="2.6" fill="#5cc863" fill-opacity="0.7"/><circle cx="515" cy="278.1" r="2.6" fill="#5cc863" fill-opacity="0.7"/><circle cx="477.1" cy="217.7" r="2.6" fill="#5cc863" fill-opacity="0.7"/><circle cx="445.4" cy="250.7" r="2.6" fill="#5cc863" fill-opacity="0.7"/><circle cx="467.8" cy="323.7" r="2.6" fill="#5cc863" fill-opacity="0.7"/><circle cx="482.9" cy="304.1" r="2.6" fill="#5cc863" fill-opacity="0.7"/><circle cx="441.6" cy="273.5" r="2.6" fill="#5cc863" fill-opacity="0.7"/><circle cx="486.2" cy="279.3" r="2.6" fill="#5cc863" fill-opacity="0.7"/><circle cx="549.6" cy="256.7" r="2.6" fill="#5cc863" fill-opacity="0.7"/><circle cx="584" cy="252.7" r="2.6" fill="#5cc863" fill-opacity="0.7"/><rect x="395" y="70" width="150" height="105" fill="#fde725" fill-opacity="0.06" stroke="#fde725" stroke-width="2" stroke-dasharray="6 5"/></svg>
